<svg t="1619775118831" class="icon" viewBox="0 0 1024 1024" version="1.1" xmlns="http://www.w3.org/2000/svg" p-id="2396" data-darkreader-inline-fill="" width="18" height="18"><path d="M513.022795 61.718667c-147.677411 0-267.395026 119.716592-267.395026 267.395026 0 147.678434 119.716592 267.395026 267.395026 267.395026S780.417821 476.792127 780.417821 329.11267C780.417821 181.435259 660.700205 61.718667 513.022795 61.718667zM513.021771 510.98795c-100.446713 0-181.874257-81.427544-181.874257-181.874257 0-100.447736 81.427544-181.874257 181.874257-181.874257 100.446713 0 181.875281 81.426521 181.875281 181.874257C694.897052 429.560406 613.468484 510.98795 513.021771 510.98795z" p-id="2397" fill="#FFA500" data-darkreader-inline-fill="" style="--darkreader-inline-fill:#cc8400;"></path><path d="M156.930657 959.469288c-0.032746-2.02103-0.056282-4.043083-0.056282-6.072299 0-197.981097 158.995177-358.477464 355.123067-358.477464 196.130959 0 355.126136 160.496367 355.126136 358.477464 0 2.028193-0.022513 4.051269-0.056282 6.072299l92.433202 0c0.026606-2.02103 0.042979-4.043083 0.042979-6.070252 0-244.530272-200.372563-442.760033-447.543989-442.760033-247.173472 0-447.546036 198.22976-447.546036 442.760033 0 2.026146 0.016373 4.049223 0.042979 6.070252L156.930657 959.469288z" p-id="2398" fill="#FFA500" data-darkreader-inline-fill="" style="--darkreader-inline-fill:#cc8400;"></path></svg>